<svg width="71" height="55" viewBox="0 0 71 55" fill="none" xmlns="http://www.w3.org/2000/svg">
<path d="M18.8152 49.5329H12.6788V37.4781H18.8152C23.6376 37.4781 26.9715 39.8172 26.9715 43.5061C26.9715 47.196 23.6376 49.5329 18.8152 49.5329ZM18.8152 32.7437H1.87592V37.2092H5.66393V53.4983C5.66393 53.9904 6.0586 54.2677 6.76063 54.2677H7.85631H18.8152C27.2761 54.2677 33.7226 49.5936 33.7226 43.5061C33.7226 37.4176 27.2761 32.7437 18.8152 32.7437Z" fill="url(#paint0_linear)"/>
<path d="M18.815 32.7437H7.43768C16.4649 32.7437 23.7195 35.9073 26.0099 40.4183C26.6295 41.2886 26.9714 42.3282 26.9714 43.5061C26.9714 44.6843 26.6295 45.7246 26.0092 46.5942C23.7174 51.1052 16.4636 54.2677 7.43768 54.2677H7.85618H18.815C27.2759 54.2677 33.7225 49.5936 33.7225 43.5061C33.7225 37.4176 27.2759 32.7437 18.815 32.7437Z" fill="url(#paint1_linear)"/>
<path d="M8.01758 30.5048V15.0516C8.01758 14.5017 8.32595 14.1928 8.87609 14.1928H12.3099C12.8587 14.1928 13.1676 14.5017 13.1676 15.0516V30.5048C13.1676 31.0537 12.8587 31.3628 12.3099 31.3628H8.87609C8.32595 31.3628 8.01758 31.0537 8.01758 30.5048ZM8.01758 11.274V8.18319C8.01758 7.63433 8.32595 7.32442 8.87609 7.32442H12.3099C12.8587 7.32442 13.1676 7.63433 13.1676 8.18319V11.274C13.1676 11.8242 12.8587 12.1328 12.3099 12.1328H8.87609C8.32595 12.1328 8.01758 11.8242 8.01758 11.274Z" fill="url(#paint2_linear)"/>
<path d="M27.558 30.5048V15.0516C27.558 14.5017 27.8669 14.1928 28.4162 14.1928H31.8508C32.3999 14.1928 32.7083 14.5017 32.7083 15.0516V30.5048C32.7083 31.0537 32.3999 31.3628 31.8508 31.3628H28.4162C27.8669 31.3628 27.558 31.0537 27.558 30.5048ZM27.558 11.274V8.18319C27.558 7.63433 27.8669 7.32442 28.4162 7.32442H31.8508C32.3999 7.32442 32.7083 7.63433 32.7083 8.18319V11.274C32.7083 11.8242 32.3999 12.1328 31.8508 12.1328H28.4162C27.8669 12.1328 27.558 11.8242 27.558 11.274Z" fill="url(#paint3_linear)"/>
<path d="M23.155 0.858877V16.3116C23.155 16.8612 22.8449 17.1701 22.2965 17.1701H18.8617C18.3131 17.1701 18.0042 16.8612 18.0042 16.3116V0.858877C18.0042 0.308733 18.3131 0.000364304 18.8617 0.000364304H22.2965C22.8449 0.000364304 23.155 0.308733 23.155 0.858877ZM23.155 20.0889V23.1795C23.155 23.7291 22.8449 24.038 22.2965 24.038H18.8617C18.3131 24.038 18.0042 23.7291 18.0042 23.1795V20.0889C18.0042 19.5392 18.3131 19.2298 18.8617 19.2298H22.2965C22.8449 19.2298 23.155 19.5392 23.155 20.0889Z" fill="url(#paint4_linear)"/>
<path d="M62.5157 31.3628H59.0809C58.532 31.3628 58.2239 31.0537 58.2239 30.5048V15.0516C58.2239 14.5017 58.532 14.1928 59.0809 14.1928H62.5157C63.0651 14.1928 63.374 14.5017 63.374 15.0516V30.5048C63.374 31.0537 63.0651 31.3628 62.5157 31.3628ZM62.5157 12.1328H59.0809C58.532 12.1328 58.2239 11.8242 58.2239 11.274V8.18319C58.2239 7.63433 58.532 7.32442 59.0809 7.32442H62.5157C63.0651 7.32442 63.374 7.63433 63.374 8.18319V11.274C63.374 11.8242 63.0651 12.1328 62.5157 12.1328Z" fill="url(#paint5_linear)"/>
<path d="M39.5406 7.32493H42.9749C43.5235 7.32493 43.8326 7.63433 43.8326 8.18319V23.6359C43.8326 24.1861 43.5235 24.4949 42.9749 24.4949H39.5406C38.9917 24.4949 38.682 24.1861 38.682 23.6359V8.18319C38.682 7.63433 38.9917 7.32493 39.5406 7.32493ZM39.5406 26.5552H42.9749C43.5235 26.5552 43.8326 26.8638 43.8326 27.4139V30.5048C43.8326 31.0537 43.5235 31.3628 42.9749 31.3628H39.5406C38.9917 31.3628 38.682 31.0537 38.682 30.5048V27.4139C38.682 26.8638 38.9917 26.5552 39.5406 26.5552Z" fill="url(#paint6_linear)"/>
<path d="M9.73434 52.531H8.63661C7.93612 52.531 7.5417 52.2542 7.5417 51.7616V35.4716H0V32.7437H1.87582V37.2092H5.66383V53.4983C5.66383 53.9904 6.05851 54.2677 6.76053 54.2677H7.85621H18.8151C24.2666 54.2677 28.8767 52.3264 31.471 49.318C28.7919 51.3149 25.006 52.531 20.6929 52.531H9.73434Z" fill="url(#paint7_linear)"/>
<path d="M43.6479 43.5061C43.6479 39.8172 46.9808 37.4781 51.8028 37.4781H57.9404V49.5329H51.8028C46.9808 49.5329 43.6479 47.196 43.6479 43.5061ZM36.8969 43.5061C36.8969 49.5936 43.3421 54.2677 51.8028 54.2677H62.7624H63.8596C64.5603 54.2677 64.9555 53.9904 64.9555 53.4983V37.2092H68.7441V32.7437H63.8596H57.9811H57.9404H51.8028C43.3421 32.7437 36.8969 37.4176 36.8969 43.5061Z" fill="url(#paint8_linear)"/>
<path d="M51.8028 32.7437H63.1824C54.1539 32.7437 46.8999 35.9073 44.6084 40.4183C43.9888 41.2886 43.6479 42.3282 43.6479 43.5061C43.6479 44.6843 43.9888 45.7246 44.6089 46.5942C46.9017 51.1052 54.1555 54.2677 63.1824 54.2677H62.7624H51.8028C43.3421 54.2677 36.8969 49.5936 36.8969 43.5061C36.8969 37.4176 43.3421 32.7437 51.8028 32.7437Z" fill="url(#paint9_linear)"/>
<path d="M60.8848 52.531H61.9815C62.6822 52.531 63.0769 52.2542 63.0769 51.7616V35.4716H70.8481V32.7437H68.7441V37.2092H64.9555V53.4983C64.9555 53.9904 64.5604 54.2677 63.8596 54.2677H62.7624H51.8028C46.352 54.2677 41.7403 52.3264 39.1476 49.318C41.8261 51.3149 45.6124 52.531 49.9259 52.531H60.8848Z" fill="url(#paint10_linear)"/>
<path d="M41.0539 43.5061C41.0539 37.4176 47.4995 32.7437 55.9604 32.7437H51.8205C46.8474 32.7437 42.5727 34.3596 39.8919 36.9267H30.7444C28.0633 34.3596 23.7887 32.7437 18.8151 32.7437H14.6754C23.1374 32.7437 29.5818 37.4176 29.5818 43.5061C29.5818 49.5936 23.1374 54.2677 14.6754 54.2677H18.8151C27.276 54.2677 33.7225 49.5936 33.7225 43.5061C33.7225 42.779 33.6285 42.0729 33.451 41.3916H37.1845C37.0088 42.0729 36.914 42.779 36.914 43.5061C36.914 49.5936 43.3595 54.2677 51.8205 54.2677H55.9604C47.4995 54.2677 41.0539 49.5936 41.0539 43.5061Z" fill="url(#paint11_linear)"/>
<path d="M18.7334 46.5081C17.1969 46.0492 16.3238 44.4318 16.7825 42.8953C17.2415 41.3588 18.8591 40.4855 20.3951 40.9439C21.9323 41.4034 22.8051 43.0208 22.3464 44.5575C21.8872 46.0937 20.2696 46.9671 18.7334 46.5081Z" fill="#A4148E"/>
<path d="M21.6916 42.9665C20.863 42.7186 20.3913 41.8468 20.6389 41.0175C20.8868 40.1876 21.7602 39.7164 22.5885 39.9638C23.4183 40.2117 23.8893 41.0846 23.6412 41.9141C23.3937 42.7437 22.5214 43.2139 21.6916 42.9665Z" fill="white"/>
<path d="M50.024 46.5081C48.4873 46.0492 47.6144 44.4318 48.0732 42.8953C48.5321 41.3588 50.1493 40.4855 51.6857 40.9439C53.2219 41.4034 54.0958 43.0208 53.6366 44.5575C53.1781 46.0937 51.5605 46.9671 50.024 46.5081Z" fill="#A4148E"/>
<path d="M52.9822 42.9665C52.1539 42.7186 51.6819 41.8468 51.9298 41.0175C52.1772 40.1876 53.0509 39.7164 53.8794 39.9638C54.7087 40.2117 55.1797 41.0846 54.9321 41.9141C54.6841 42.7437 53.8118 43.2139 52.9822 42.9665Z" fill="white"/>
<path d="M48.2361 23.1795V7.72647C48.2361 7.17735 48.5457 6.86822 49.0943 6.86822H52.5289C53.0773 6.86822 53.3869 7.17735 53.3869 7.72647V23.1795C53.3869 23.7296 53.0773 24.038 52.5289 24.038H49.0943C48.5457 24.038 48.2361 23.7296 48.2361 23.1795ZM48.2361 3.94948V0.858875C48.2361 0.308987 48.5457 0.000104904 49.0943 0.000104904H52.5289C53.0773 0.000104904 53.3869 0.308987 53.3869 0.858875V3.94948C53.3869 4.49911 53.0773 4.80824 52.5289 4.80824H49.0943C48.5457 4.80824 48.2361 4.49911 48.2361 3.94948Z" fill="url(#paint12_linear)"/>
<defs>
<linearGradient id="paint0_linear" x1="23.767" y1="42.5941" x2="4.23867" y2="43.961" gradientUnits="userSpaceOnUse">
<stop stop-color="#C2126F"/>
<stop offset="0.124322" stop-color="#C2126F"/>
<stop offset="0.574239" stop-color="#E51A34"/>
<stop offset="0.973673" stop-color="#F0431E"/>
<stop offset="1" stop-color="#F0431E"/>
</linearGradient>
<linearGradient id="paint1_linear" x1="27.8356" y1="32.673" x2="18.57" y2="41.9386" gradientUnits="userSpaceOnUse">
<stop stop-color="#A4148E"/>
<stop offset="0.183076" stop-color="#A4148E"/>
<stop offset="0.330596" stop-color="#BD156D"/>
<stop offset="0.973673" stop-color="#F0431E"/>
<stop offset="1" stop-color="#F0431E"/>
</linearGradient>
<linearGradient id="paint2_linear" x1="10.5926" y1="36.1266" x2="10.5926" y2="10.2227" gradientUnits="userSpaceOnUse">
<stop stop-color="#C2126F"/>
<stop offset="0.124322" stop-color="#C2126F"/>
<stop offset="0.574239" stop-color="#E51A34"/>
<stop offset="0.973673" stop-color="#F0431E"/>
<stop offset="1" stop-color="#F0431E"/>
</linearGradient>
<linearGradient id="paint3_linear" x1="30.1333" y1="1.63805" x2="30.1333" y2="45.2032" gradientUnits="userSpaceOnUse">
<stop stop-color="#EC0B6A"/>
<stop offset="0.0964605" stop-color="#EC0B6A"/>
<stop offset="0.503448" stop-color="#BD156D"/>
<stop offset="1" stop-color="#BD156D"/>
</linearGradient>
<linearGradient id="paint4_linear" x1="20.5795" y1="20.7957" x2="20.5795" y2="-9.599" gradientUnits="userSpaceOnUse">
<stop stop-color="#A4148E"/>
<stop offset="0.155034" stop-color="#A4148E"/>
<stop offset="0.574239" stop-color="#74218F"/>
<stop offset="1" stop-color="#74218F"/>
</linearGradient>
<linearGradient id="paint5_linear" x1="60.799" y1="35.4389" x2="60.799" y2="13.1529" gradientUnits="userSpaceOnUse">
<stop stop-color="#C2126F"/>
<stop offset="0.124322" stop-color="#C2126F"/>
<stop offset="0.574239" stop-color="#E51A34"/>
<stop offset="0.973673" stop-color="#F0431E"/>
<stop offset="1" stop-color="#F0431E"/>
</linearGradient>
<linearGradient id="paint6_linear" x1="41.2573" y1="33.6118" x2="41.2573" y2="13.0564" gradientUnits="userSpaceOnUse">
<stop stop-color="#F68815"/>
<stop offset="0.46887" stop-color="#F68815"/>
<stop offset="0.973673" stop-color="#F0431E"/>
<stop offset="1" stop-color="#F0431E"/>
</linearGradient>
<linearGradient id="paint7_linear" x1="0.164172" y1="42.2481" x2="11.5534" y2="45.8319" gradientUnits="userSpaceOnUse">
<stop stop-color="#F9A90F"/>
<stop offset="0.14212" stop-color="#F9A90F"/>
<stop offset="0.46887" stop-color="#F68815"/>
<stop offset="0.973673" stop-color="#F0431E"/>
<stop offset="1" stop-color="#F0431E"/>
</linearGradient>
<linearGradient id="paint8_linear" x1="46.8527" y1="42.5941" x2="66.3814" y2="43.961" gradientUnits="userSpaceOnUse">
<stop stop-color="#C2126F"/>
<stop offset="0.124322" stop-color="#C2126F"/>
<stop offset="0.574239" stop-color="#E51A34"/>
<stop offset="0.973673" stop-color="#F0431E"/>
<stop offset="1" stop-color="#F0431E"/>
</linearGradient>
<linearGradient id="paint9_linear" x1="51.6012" y1="28.9683" x2="49.8146" y2="51.565" gradientUnits="userSpaceOnUse">
<stop stop-color="#A4148E"/>
<stop offset="0.183076" stop-color="#A4148E"/>
<stop offset="0.330596" stop-color="#BD156D"/>
<stop offset="0.973673" stop-color="#F0431E"/>
<stop offset="1" stop-color="#F0431E"/>
</linearGradient>
<linearGradient id="paint10_linear" x1="70.6455" y1="42.1881" x2="59.1851" y2="45.7944" gradientUnits="userSpaceOnUse">
<stop stop-color="#F9A90F"/>
<stop offset="0.14212" stop-color="#F9A90F"/>
<stop offset="0.46887" stop-color="#F68815"/>
<stop offset="0.973673" stop-color="#F0431E"/>
<stop offset="1" stop-color="#F0431E"/>
</linearGradient>
<linearGradient id="paint11_linear" x1="35.0141" y1="56.5749" x2="35.645" y2="29.4472" gradientUnits="userSpaceOnUse">
<stop stop-color="#E51A34"/>
<stop offset="0.310607" stop-color="#E51A34"/>
<stop offset="0.657266" stop-color="#F0431E"/>
<stop offset="1" stop-color="#F0431E"/>
</linearGradient>
<linearGradient id="paint12_linear" x1="50.8114" y1="3.24232" x2="50.8114" y2="33.6376" gradientUnits="userSpaceOnUse">
<stop stop-color="#A4148E"/>
<stop offset="0.155034" stop-color="#A4148E"/>
<stop offset="0.574239" stop-color="#74218F"/>
<stop offset="1" stop-color="#74218F"/>
</linearGradient>
</defs>
</svg>
